<svg  width="100%" height="100%" viewBox="0 0 426 572" version="1.1" xml:space="preserve" xmlns:serif="http://www.serif.com/" style="fill-rule:evenodd;clip-rule:evenodd;stroke-linejoin:round;stroke-miterlimit:2;"><g><path class="head" d="M60.777,340.304l0,-204.564c0,-74.967 68.195,-135.74 151.926,-135.74c83.907,-0 151.926,61.022 151.926,135.74c0,-0 0,45.975 0,67.779c0,2.975 -1.182,5.829 -3.286,7.933c-2.104,2.104 -4.957,3.286 -7.933,3.286c-10.919,-0 -27.42,-0 -38.339,-0c-2.976,-0 -5.829,-1.182 -7.933,-3.286c-2.104,-2.104 -3.286,-4.958 -3.286,-7.933c-0,-21.804 -0,-67.779 -0,-67.779c-0,-44.759 -40.917,-81.387 -91.149,-81.387c-50.232,0 -91.148,36.521 -91.148,81.387l-0,204.707"/><path  class="body" d="M121.555,268.626c-0,17.048 13.603,30.815 30.371,30.815l60.777,-0l0,0.079l185.963,0c15.045,1.839 26.74,14.842 26.74,30.628l0,210.065c0,17.048 -13.638,30.815 -30.406,30.815l-364.594,-0c-16.767,-0 -30.406,-13.767 -30.406,-30.815l0,-210.065c0,-17.048 13.639,-30.85 30.406,-30.85c16.768,0 30.371,-13.767 30.371,-30.814"/><path  class="sbody" d="M303.852,299.458c-0,17.048 -13.604,30.815 -30.371,30.815l-60.778,-0l0,0.08l-185.962,-0c-15.046,1.838 -26.741,14.841 -26.741,30.627l425.406,0c0,-17.048 -13.638,-30.85 -30.406,-30.85c-16.767,0 -30.371,-13.766 -30.371,-30.814"/></g></svg>